# xmcd
#
# Track frame offsets:
# 150
# 13918
# 33175
# 48907
# 66005
# 79891
# 96181
# 111628
# 131408
# 147078
# 167833
# 189480
# 207253
#
# Disc length: 2997 seconds
#
#
# Revision: 0
# Processed by: cddbd v1.5.2PL0 Copyright (c) Steve Scherf et al.
# Submitted via: FreeRIP 2.945 
#
DISCID=b40bb30d
DTITLE=Manhattans - The Best Of
DYEAR=1900
DGENRE=Soul
TTITLE0=Hurt
TTITLE1=We Never Danced To A Love Song
TTITLE2=Reasons
TTITLE3=Am I Losing You
TTITLE4=Fever
TTITLE5=There's No Me Without You
TTITLE6=La La La Wish Upon A Star
TTITLE7=Kiss And SaY Goodbye
TTITLE8=Don't Take Your Love
TTITLE9=Soul Train
TTITLE10=Summer In The City
TTITLE11=Tomorrow
TTITLE12=It's You
EXTD=
EXTT0=
EXTT1=
EXTT2=
EXTT3=
EXTT4=
EXTT5=
EXTT6=
EXTT7=
EXTT8=
EXTT9=
EXTT10=
EXTT11=
EXTT12=
PLAYORDER=
